<svg width="113" height="80" viewBox="0 0 113 80" fill="none" xmlns="http://www.w3.org/2000/svg">
<rect width="7" height="6" fill="white" fill-opacity="0.39"/>
<rect y="18" width="7" height="7" fill="white" fill-opacity="0.2"/>
<rect y="37" width="7" height="6" fill="white" fill-opacity="0.39"/>
<rect y="55" width="7" height="7" fill="white" fill-opacity="0.39"/>
<rect y="74" width="7" height="6" fill="white" fill-opacity="0.2"/>
<rect x="15" width="7" height="6" fill="white" fill-opacity="0.39"/>
<rect x="15" y="18" width="7" height="7" fill="white" fill-opacity="0.39"/>
<rect x="15" y="37" width="7" height="6" fill="white" fill-opacity="0.2"/>
<rect x="15" y="55" width="7" height="7" fill="white" fill-opacity="0.2"/>
<rect x="15" y="74" width="7" height="6" fill="white" fill-opacity="0.2"/>
<rect x="30" width="7" height="6" fill="white" fill-opacity="0.2"/>
<rect x="30" y="18" width="7" height="7" fill="white" fill-opacity="0.2"/>
<rect x="30" y="37" width="7" height="6" fill="white" fill-opacity="0.2"/>
<rect x="30" y="55" width="7" height="7" fill="white" fill-opacity="0.2"/>
<rect x="30" y="74" width="7" height="6" fill="white" fill-opacity="0.2"/>
<rect x="46" width="6" height="6" fill="white" fill-opacity="0.2"/>
<rect x="46" y="18" width="6" height="7" fill="white" fill-opacity="0.2"/>
<rect x="46" y="37" width="6" height="6" fill="white" fill-opacity="0.2"/>
<rect x="46" y="55" width="6" height="7" fill="white" fill-opacity="0.2"/>
<rect x="46" y="74" width="6" height="6" fill="white" fill-opacity="0.2"/>
<rect x="61" width="6" height="6" fill="white" fill-opacity="0.39"/>
<rect x="61" y="18" width="6" height="7" fill="white" fill-opacity="0.2"/>
<rect x="61" y="37" width="6" height="6" fill="white" fill-opacity="0.2"/>
<rect x="61" y="55" width="6" height="7" fill="white" fill-opacity="0.2"/>
<rect x="61" y="74" width="6" height="6" fill="white" fill-opacity="0.2"/>
<rect x="76" width="7" height="6" fill="white" fill-opacity="0.39"/>
<rect x="76" y="18" width="7" height="7" fill="white" fill-opacity="0.2"/>
<rect x="76" y="37" width="7" height="6" fill="white" fill-opacity="0.2"/>
<rect x="76" y="55" width="7" height="7" fill="white" fill-opacity="0.2"/>
<rect x="76" y="74" width="7" height="6" fill="white" fill-opacity="0.2"/>
<rect x="91" width="7" height="6" fill="white" fill-opacity="0.2"/>
<rect x="91" y="18" width="7" height="7" fill="white" fill-opacity="0.2"/>
<rect x="91" y="37" width="7" height="6" fill="white" fill-opacity="0.2"/>
<rect x="91" y="55" width="7" height="7" fill="white" fill-opacity="0.2"/>
<rect x="91" y="74" width="7" height="6" fill="white" fill-opacity="0.2"/>
<rect x="106" width="7" height="6" fill="white" fill-opacity="0.2"/>
<rect x="106" y="18" width="7" height="7" fill="white" fill-opacity="0.2"/>
<rect x="106" y="37" width="7" height="6" fill="white" fill-opacity="0.2"/>
<rect x="106" y="55" width="7" height="7" fill="white" fill-opacity="0.2"/>
<rect x="106" y="74" width="7" height="6" fill="white" fill-opacity="0.2"/>
</svg>
